<svg xmlns="http://www.w3.org/2000/svg" viewBox="0 0 1024 1024" width="1024" height="1024" role="img" aria-label="Aegis B650 Board">
  <defs>
    <linearGradient id="bg" x1="0" y1="0" x2="1" y2="1">
      <stop offset="0%" stop-color="#1a0b12"/>
      <stop offset="100%" stop-color="#331426"/>
    </linearGradient>
    <radialGradient id="glow" cx="75%" cy="22%" r="58%">
      <stop offset="0%" stop-color="#ff5f7b" stop-opacity="0.32"/>
      <stop offset="100%" stop-color="#ff5f7b" stop-opacity="0"/>
    </radialGradient>
  </defs>
  <rect width="1024" height="1024" fill="url(#bg)"/>
  <rect width="1024" height="1024" fill="url(#glow)"/>
  <rect x="42" y="42" width="940" height="940" rx="40" fill="none" stroke="#f8fbff" stroke-opacity="0.08"/>
  <text x="72" y="106" fill="#22d3ee" font-size="28" font-weight="700" letter-spacing="4" font-family="Segoe UI, Arial, sans-serif">DIGITAL FORGE</text>
  <text x="72" y="156" fill="#cbd5e1" font-size="26" font-weight="600" letter-spacing="3" font-family="Segoe UI, Arial, sans-serif">MOTHERBOARD</text>
  <text x="72" y="270" fill="#f8fbff" font-size="56" font-weight="700" font-family="Segoe UI, Arial, sans-serif">Aegis B650 Board</text>
  <rect x="72" y="788" width="252" height="66" rx="22" fill="#f8fbff" fill-opacity="0.08" stroke="#f8fbff" stroke-opacity="0.10"/>
  <text x="102" y="830" fill="#ff5f7b" font-size="30" font-weight="700" font-family="Segoe UI, Arial, sans-serif">AM5 Ready</text>
  <text x="72" y="916" fill="#cbd5e1" font-size="34" font-weight="600" font-family="Segoe UI, Arial, sans-serif">$279</text>
  <text x="72" y="952" fill="#94a3b8" font-size="20" font-family="Segoe UI, Arial, sans-serif">Catalog product art</text>
  <rect x="564" y="180" width="316" height="330" rx="24" fill="#121826" stroke="#f8fbff" stroke-opacity="0.12"/>
<rect x="604" y="220" width="110" height="110" rx="14" fill="#0b1220" stroke="#ff5f7b" stroke-width="8"/>
<rect x="742" y="220" width="92" height="44" rx="8" fill="#202b3f"/>
<rect x="742" y="284" width="92" height="126" rx="12" fill="#151d2d"/>
<rect x="604" y="360" width="140" height="96" rx="12" fill="#1a2233"/>
<rect x="760" y="432" width="74" height="34" rx="8" fill="#ff5f7b" fill-opacity="0.75"/>
<g stroke="#5d6b86" stroke-opacity="0.55"> <line x1="604" y1="356" x2="834" y2="356"/><line x1="730" y1="220" x2="730" y2="464"/></g>
</svg>
