<svg xmlns="http://www.w3.org/2000/svg" viewBox="0 0 1024 1024" width="1024" height="1024" role="img" aria-label="Forge Mechanical Keyboard">
  <defs>
    <linearGradient id="bg" x1="0" y1="0" x2="1" y2="1">
      <stop offset="0%" stop-color="#0b1220"/>
      <stop offset="100%" stop-color="#11253b"/>
    </linearGradient>
    <radialGradient id="glow" cx="75%" cy="22%" r="58%">
      <stop offset="0%" stop-color="#22d3ee" stop-opacity="0.32"/>
      <stop offset="100%" stop-color="#22d3ee" stop-opacity="0"/>
    </radialGradient>
  </defs>
  <rect width="1024" height="1024" fill="url(#bg)"/>
  <rect width="1024" height="1024" fill="url(#glow)"/>
  <rect x="42" y="42" width="940" height="940" rx="40" fill="none" stroke="#f8fbff" stroke-opacity="0.08"/>
  <text x="72" y="106" fill="#22d3ee" font-size="28" font-weight="700" letter-spacing="4" font-family="Segoe UI, Arial, sans-serif">DIGITAL FORGE</text>
  <text x="72" y="156" fill="#cbd5e1" font-size="26" font-weight="600" letter-spacing="3" font-family="Segoe UI, Arial, sans-serif">INPUT DEVICE</text>
  <text x="72" y="270" fill="#f8fbff" font-size="56" font-weight="700" font-family="Segoe UI, Arial, sans-serif">Forge Mechanical</text><text x="72" y="338" fill="#f8fbff" font-size="56" font-weight="700" font-family="Segoe UI, Arial, sans-serif">Keyboard</text>
  <rect x="72" y="788" width="252" height="66" rx="22" fill="#f8fbff" fill-opacity="0.08" stroke="#f8fbff" stroke-opacity="0.10"/>
  <text x="102" y="830" fill="#22d3ee" font-size="30" font-weight="700" font-family="Segoe UI, Arial, sans-serif">Hot-Swap</text>
  <text x="72" y="916" fill="#cbd5e1" font-size="34" font-weight="600" font-family="Segoe UI, Arial, sans-serif">$79</text>
  <text x="72" y="952" fill="#94a3b8" font-size="20" font-family="Segoe UI, Arial, sans-serif">Catalog product art</text>
  <g transform="translate(534,286) rotate(-5)">
<rect x="0" y="0" width="370" height="168" rx="24" fill="#111827" stroke="#f8fbff" stroke-opacity="0.10"/>
<rect x="20" y="20" width="24" height="24" rx="5" fill="#1e293b" stroke="#22d3ee" stroke-opacity="0.35"/><rect x="54" y="20" width="24" height="24" rx="5" fill="#1e293b" stroke="#22d3ee" stroke-opacity="0.35"/><rect x="88" y="20" width="24" height="24" rx="5" fill="#1e293b" stroke="#22d3ee" stroke-opacity="0.35"/><rect x="122" y="20" width="24" height="24" rx="5" fill="#1e293b" stroke="#22d3ee" stroke-opacity="0.35"/><rect x="156" y="20" width="24" height="24" rx="5" fill="#1e293b" stroke="#22d3ee" stroke-opacity="0.35"/><rect x="190" y="20" width="24" height="24" rx="5" fill="#1e293b" stroke="#22d3ee" stroke-opacity="0.35"/><rect x="224" y="20" width="24" height="24" rx="5" fill="#1e293b" stroke="#22d3ee" stroke-opacity="0.35"/><rect x="258" y="20" width="24" height="24" rx="5" fill="#1e293b" stroke="#22d3ee" stroke-opacity="0.35"/><rect x="292" y="20" width="24" height="24" rx="5" fill="#1e293b" stroke="#22d3ee" stroke-opacity="0.35"/><rect x="326" y="20" width="24" height="24" rx="5" fill="#1e293b" stroke="#22d3ee" stroke-opacity="0.35"/><rect x="20" y="54" width="24" height="24" rx="5" fill="#1e293b" stroke="#22d3ee" stroke-opacity="0.35"/><rect x="54" y="54" width="24" height="24" rx="5" fill="#1e293b" stroke="#22d3ee" stroke-opacity="0.35"/><rect x="88" y="54" width="24" height="24" rx="5" fill="#1e293b" stroke="#22d3ee" stroke-opacity="0.35"/><rect x="122" y="54" width="24" height="24" rx="5" fill="#1e293b" stroke="#22d3ee" stroke-opacity="0.35"/><rect x="156" y="54" width="24" height="24" rx="5" fill="#1e293b" stroke="#22d3ee" stroke-opacity="0.35"/><rect x="190" y="54" width="24" height="24" rx="5" fill="#1e293b" stroke="#22d3ee" stroke-opacity="0.35"/><rect x="224" y="54" width="24" height="24" rx="5" fill="#1e293b" stroke="#22d3ee" stroke-opacity="0.35"/><rect x="258" y="54" width="24" height="24" rx="5" fill="#1e293b" stroke="#22d3ee" stroke-opacity="0.35"/><rect x="292" y="54" width="24" height="24" rx="5" fill="#1e293b" stroke="#22d3ee" stroke-opacity="0.35"/><rect x="326" y="54" width="24" height="24" rx="5" fill="#1e293b" stroke="#22d3ee" stroke-opacity="0.35"/><rect x="20" y="88" width="24" height="24" rx="5" fill="#1e293b" stroke="#22d3ee" stroke-opacity="0.35"/><rect x="54" y="88" width="24" height="24" rx="5" fill="#1e293b" stroke="#22d3ee" stroke-opacity="0.35"/><rect x="88" y="88" width="24" height="24" rx="5" fill="#1e293b" stroke="#22d3ee" stroke-opacity="0.35"/><rect x="122" y="88" width="24" height="24" rx="5" fill="#1e293b" stroke="#22d3ee" stroke-opacity="0.35"/><rect x="156" y="88" width="24" height="24" rx="5" fill="#1e293b" stroke="#22d3ee" stroke-opacity="0.35"/><rect x="190" y="88" width="24" height="24" rx="5" fill="#1e293b" stroke="#22d3ee" stroke-opacity="0.35"/><rect x="224" y="88" width="24" height="24" rx="5" fill="#1e293b" stroke="#22d3ee" stroke-opacity="0.35"/><rect x="258" y="88" width="24" height="24" rx="5" fill="#1e293b" stroke="#22d3ee" stroke-opacity="0.35"/><rect x="292" y="88" width="24" height="24" rx="5" fill="#1e293b" stroke="#22d3ee" stroke-opacity="0.35"/><rect x="326" y="88" width="24" height="24" rx="5" fill="#1e293b" stroke="#22d3ee" stroke-opacity="0.35"/><rect x="20" y="122" width="24" height="24" rx="5" fill="#1e293b" stroke="#22d3ee" stroke-opacity="0.35"/><rect x="54" y="122" width="24" height="24" rx="5" fill="#1e293b" stroke="#22d3ee" stroke-opacity="0.35"/><rect x="88" y="122" width="24" height="24" rx="5" fill="#1e293b" stroke="#22d3ee" stroke-opacity="0.35"/><rect x="122" y="122" width="24" height="24" rx="5" fill="#1e293b" stroke="#22d3ee" stroke-opacity="0.35"/><rect x="156" y="122" width="24" height="24" rx="5" fill="#1e293b" stroke="#22d3ee" stroke-opacity="0.35"/><rect x="190" y="122" width="24" height="24" rx="5" fill="#1e293b" stroke="#22d3ee" stroke-opacity="0.35"/><rect x="224" y="122" width="24" height="24" rx="5" fill="#1e293b" stroke="#22d3ee" stroke-opacity="0.35"/><rect x="258" y="122" width="24" height="24" rx="5" fill="#1e293b" stroke="#22d3ee" stroke-opacity="0.35"/><rect x="292" y="122" width="24" height="24" rx="5" fill="#1e293b" stroke="#22d3ee" stroke-opacity="0.35"/><rect x="326" y="122" width="24" height="24" rx="5" fill="#1e293b" stroke="#22d3ee" stroke-opacity="0.35"/></g>
</svg>
