<svg xmlns="http://www.w3.org/2000/svg" viewBox="0 0 1024 1024" width="1024" height="1024" role="img" aria-label="Ryzen 5 5600G">
  <defs>
    <linearGradient id="bg" x1="0" y1="0" x2="1" y2="1">
      <stop offset="0%" stop-color="#09140f"/>
      <stop offset="100%" stop-color="#123227"/>
    </linearGradient>
    <radialGradient id="glow" cx="75%" cy="22%" r="58%">
      <stop offset="0%" stop-color="#38ef7d" stop-opacity="0.32"/>
      <stop offset="100%" stop-color="#38ef7d" stop-opacity="0"/>
    </radialGradient>
  </defs>
  <rect width="1024" height="1024" fill="url(#bg)"/>
  <rect width="1024" height="1024" fill="url(#glow)"/>
  <rect x="42" y="42" width="940" height="940" rx="40" fill="none" stroke="#f8fbff" stroke-opacity="0.08"/>
  <text x="72" y="106" fill="#22d3ee" font-size="28" font-weight="700" letter-spacing="4" font-family="Segoe UI, Arial, sans-serif">DIGITAL FORGE</text>
  <text x="72" y="156" fill="#cbd5e1" font-size="26" font-weight="600" letter-spacing="3" font-family="Segoe UI, Arial, sans-serif">CPU</text>
  <text x="72" y="270" fill="#f8fbff" font-size="56" font-weight="700" font-family="Segoe UI, Arial, sans-serif">Ryzen 5 5600G</text>
  <rect x="72" y="788" width="252" height="66" rx="22" fill="#f8fbff" fill-opacity="0.08" stroke="#f8fbff" stroke-opacity="0.10"/>
  <text x="102" y="830" fill="#38ef7d" font-size="30" font-weight="700" font-family="Segoe UI, Arial, sans-serif">Popular APU</text>
  <text x="72" y="916" fill="#cbd5e1" font-size="34" font-weight="600" font-family="Segoe UI, Arial, sans-serif">$139</text>
  <text x="72" y="952" fill="#94a3b8" font-size="20" font-family="Segoe UI, Arial, sans-serif">Catalog product art</text>
  <rect x="600" y="208" width="232" height="232" rx="26" fill="#121826" stroke="#38ef7d" stroke-width="10"/>
<rect x="648" y="256" width="136" height="136" rx="16" fill="#1f2937" stroke="#f8fbff" stroke-opacity="0.25"/>
<g stroke="#38ef7d" stroke-width="8" stroke-linecap="round"><line x1="632" y1="190" x2="632" y2="160"/><line x1="632" y1="488" x2="632" y2="458"/><line x1="684" y1="190" x2="684" y2="160"/><line x1="684" y1="488" x2="684" y2="458"/><line x1="736" y1="190" x2="736" y2="160"/><line x1="736" y1="488" x2="736" y2="458"/><line x1="788" y1="190" x2="788" y2="160"/><line x1="788" y1="488" x2="788" y2="458"/><line x1="580" y1="240" x2="550" y2="240"/><line x1="882" y1="240" x2="912" y2="240"/><line x1="580" y1="292" x2="550" y2="292"/><line x1="882" y1="292" x2="912" y2="292"/><line x1="580" y1="344" x2="550" y2="344"/><line x1="882" y1="344" x2="912" y2="344"/><line x1="580" y1="396" x2="550" y2="396"/><line x1="882" y1="396" x2="912" y2="396"/></g>
</svg>
