<svg xmlns="http://www.w3.org/2000/svg" viewBox="0 0 1024 1024" width="1024" height="1024" role="img" aria-label="Vortex RTX 4070 Super">
  <defs>
    <linearGradient id="bg" x1="0" y1="0" x2="1" y2="1">
      <stop offset="0%" stop-color="#0b1220"/>
      <stop offset="100%" stop-color="#11253b"/>
    </linearGradient>
    <radialGradient id="glow" cx="75%" cy="22%" r="58%">
      <stop offset="0%" stop-color="#22d3ee" stop-opacity="0.32"/>
      <stop offset="100%" stop-color="#22d3ee" stop-opacity="0"/>
    </radialGradient>
  </defs>
  <rect width="1024" height="1024" fill="url(#bg)"/>
  <rect width="1024" height="1024" fill="url(#glow)"/>
  <rect x="42" y="42" width="940" height="940" rx="40" fill="none" stroke="#f8fbff" stroke-opacity="0.08"/>
  <text x="72" y="106" fill="#22d3ee" font-size="28" font-weight="700" letter-spacing="4" font-family="Segoe UI, Arial, sans-serif">DIGITAL FORGE</text>
  <text x="72" y="156" fill="#cbd5e1" font-size="26" font-weight="600" letter-spacing="3" font-family="Segoe UI, Arial, sans-serif">GPU</text>
  <text x="72" y="270" fill="#f8fbff" font-size="56" font-weight="700" font-family="Segoe UI, Arial, sans-serif">Vortex RTX 4070</text><text x="72" y="338" fill="#f8fbff" font-size="56" font-weight="700" font-family="Segoe UI, Arial, sans-serif">Super</text>
  <rect x="72" y="788" width="252" height="66" rx="22" fill="#f8fbff" fill-opacity="0.08" stroke="#f8fbff" stroke-opacity="0.10"/>
  <text x="102" y="830" fill="#22d3ee" font-size="30" font-weight="700" font-family="Segoe UI, Arial, sans-serif">1440p Ultra</text>
  <text x="72" y="916" fill="#cbd5e1" font-size="34" font-weight="600" font-family="Segoe UI, Arial, sans-serif">$649</text>
  <text x="72" y="952" fill="#94a3b8" font-size="20" font-family="Segoe UI, Arial, sans-serif">Catalog product art</text>
  <g transform="translate(510,270) rotate(-9)">
<rect x="0" y="0" width="380" height="150" rx="28" fill="#121826" stroke="#f8fbff" stroke-opacity="0.10"/>
<circle cx="138" cy="76" r="42" fill="#1f2937" stroke="#22d3ee" stroke-width="8"/>
<circle cx="138" cy="76" r="16" fill="#0b1220"/>
<circle cx="260" cy="76" r="42" fill="#1f2937" stroke="#94a3b8" stroke-opacity="0.50" stroke-width="8"/>
<circle cx="260" cy="76" r="16" fill="#0b1220"/>
<rect x="340" y="34" width="44" height="84" rx="12" fill="#27364c"/>
</g>
</svg>
